<svg width="387" height="121" viewBox="0 0 387 121" fill="none" xmlns="http://www.w3.org/2000/svg">
<g opacity="0.38" filter="url(#filter0_i_17_14)">
<rect width="387" height="121" rx="55" fill="#EEA561"/>
</g>
<path d="M97.1044 49.8C98.091 52.7333 99.211 55.96 100.464 59.48C101.718 62.9733 102.864 66 103.904 68.56C104.678 66.08 105.744 63.1067 107.104 59.64C108.464 56.1467 109.731 53 110.904 50.2C111.251 49.3733 111.838 48.96 112.664 48.96C113.438 48.96 114.024 49.12 114.424 49.44C114.824 49.7333 115.024 50.2533 115.024 51C115.024 51.2933 114.984 51.5467 114.904 51.76C114.824 51.9733 114.704 52.2533 114.544 52.6C113.718 54.2267 112.891 56.1067 112.064 58.24C111.238 60.3467 110.224 63.0267 109.024 66.28C109.078 66.1467 108.704 67.1467 107.904 69.28L106.584 72.72C106.424 73.1467 106.158 73.48 105.784 73.72C105.438 73.9333 105.038 74.04 104.584 74.04C104.131 74.04 103.624 73.9333 103.064 73.72C102.531 73.48 102.144 73.24 101.904 73C100.998 71.2667 99.8377 68.76 98.4244 65.48C97.0377 62.2 95.8377 59.1733 94.8244 56.4L94.2244 54.76C93.8244 53.64 93.531 52.7867 93.3444 52.2C93.1577 51.5867 93.0644 51.0933 93.0644 50.72C93.0644 50.1867 93.3577 49.76 93.9444 49.44C94.5577 49.12 95.1444 48.96 95.7044 48.96C95.9977 48.96 96.2777 49.0267 96.5444 49.16C96.811 49.2933 96.9977 49.5067 97.1044 49.8ZM119.699 48.32C120.632 48.4 121.446 48.6533 122.139 49.08C122.832 49.48 123.179 50.0933 123.179 50.92C123.179 51.5333 122.886 52.0267 122.299 52.4C121.739 52.7467 121.059 52.92 120.259 52.92C119.486 52.92 118.952 52.72 118.659 52.32C118.366 51.92 118.219 51.5067 118.219 51.08C118.219 50.28 118.299 49.6133 118.459 49.08C118.646 48.5467 119.059 48.2933 119.699 48.32ZM122.899 66.04V67.2C122.899 68.24 122.926 69.2267 122.979 70.16C123.059 71.0667 123.152 71.9867 123.259 72.92C123.232 73.1867 123.032 73.4667 122.659 73.76C122.286 74.0267 121.952 74.16 121.659 74.16C121.152 74.16 120.632 74.0667 120.099 73.88C119.592 73.6667 119.286 73.4133 119.179 73.12C119.019 72.2667 118.939 71.5067 118.939 70.84C118.939 68.6533 118.872 66.2 118.739 63.48C118.632 61.08 118.579 59.4 118.579 58.44C118.579 57.96 118.819 57.5467 119.299 57.2C119.779 56.8533 120.286 56.68 120.819 56.68C121.592 56.68 122.126 56.8533 122.419 57.2C122.739 57.5467 122.899 58.0933 122.899 58.84V66.04ZM127.493 64.84C127.493 63.2133 127.853 61.8667 128.573 60.8C129.293 59.7067 130.293 58.68 131.573 57.72C131.947 57.4533 132.573 57.2267 133.453 57.04C134.333 56.8267 135.107 56.72 135.773 56.72C136.573 56.72 137.413 56.8933 138.293 57.24C139.2 57.56 139.933 57.9333 140.493 58.36C141.48 59.08 142.16 59.92 142.533 60.88C142.907 61.8133 143.093 62.9333 143.093 64.24C143.093 64.8 142.773 65.3467 142.133 65.88C141.52 66.3867 140.853 66.64 140.133 66.64L138.613 66.6C137.84 66.6 136.733 66.6267 135.293 66.68L134.453 66.72C133.867 66.7733 133.427 66.8 133.133 66.8C132.707 66.8 132.12 66.7467 131.373 66.64C131.48 67.8933 131.947 68.88 132.773 69.6C133.6 70.2933 134.493 70.64 135.453 70.64C137.133 70.64 138.307 70.3067 138.973 69.64C139.533 69.24 139.907 68.9867 140.093 68.88C140.28 68.7733 140.573 68.72 140.973 68.72C141.4 68.72 141.773 68.92 142.093 69.32C142.413 69.72 142.573 70.12 142.573 70.52C142.573 70.9733 142.293 71.44 141.733 71.92C141.2 72.3733 140.467 72.8533 139.533 73.36C139.027 73.5733 138.333 73.76 137.453 73.92C136.573 74.08 135.84 74.16 135.253 74.16C134.32 74.16 133.28 73.8933 132.133 73.36C130.987 72.8 130.133 72.1867 129.573 71.52C129.013 70.8533 128.52 69.9067 128.093 68.68C127.693 67.4533 127.493 66.1733 127.493 64.84ZM135.453 63.76C137.347 63.76 138.733 63.6933 139.613 63.56C139.56 62.7867 139.32 62.16 138.893 61.68C138.467 61.1733 137.88 60.7467 137.133 60.4C136.893 60.2933 136.68 60.2133 136.493 60.16C136.307 60.1067 136.093 60.08 135.853 60.08C134.627 60.08 133.587 60.4133 132.733 61.08C131.907 61.7467 131.413 62.6 131.253 63.64C132.587 63.72 133.987 63.76 135.453 63.76ZM165.358 64.48C165.518 63.8933 165.691 63.0933 165.878 62.08C166.144 60.88 166.358 59.9733 166.518 59.36C166.678 58.7467 166.891 58.2267 167.158 57.8C167.451 57.32 167.704 57 167.918 56.84C168.158 56.68 168.411 56.6 168.678 56.6C170.064 56.6 170.758 57.1333 170.758 58.2C170.758 58.7333 170.544 59.7333 170.118 61.2C168.704 65.4667 167.691 68.7733 167.078 71.12C166.811 72.1067 166.411 72.8667 165.878 73.4C165.344 73.9067 164.624 74.16 163.718 74.16C163.264 74.16 162.798 73.9467 162.318 73.52C161.864 73.0667 161.491 72.52 161.198 71.88L160.758 70.8C160.011 68.9067 159.451 67.4533 159.078 66.44C158.731 65.4 158.504 64.4667 158.398 63.64L158.038 64.92C157.398 67.2133 156.731 69.3467 156.038 71.32C155.691 72.3333 155.264 73.0667 154.758 73.52C154.251 73.9467 153.598 74.16 152.798 74.16C152.318 74.16 151.891 74.0533 151.518 73.84C151.171 73.6267 150.838 73.2667 150.518 72.76C150.091 72.0667 149.678 71.1333 149.278 69.96C148.904 68.7867 148.358 66.96 147.638 64.48C147.291 63.4133 146.971 62.2933 146.678 61.12C146.384 59.92 146.238 59.08 146.238 58.6C146.238 58.04 146.384 57.6 146.678 57.28C146.971 56.96 147.398 56.8 147.958 56.8C148.678 56.8 149.184 56.9467 149.478 57.24C149.771 57.5067 150.038 57.92 150.278 58.48C150.411 59.44 150.704 60.8 151.158 62.56L152.038 66.32C152.091 66.6133 152.251 67.2267 152.518 68.16L152.838 69.32C153.424 68.0667 153.918 66.8667 154.318 65.72C154.718 64.5733 155.158 63.16 155.638 61.48C155.664 61.3733 155.931 60.4533 156.438 58.72C156.784 58.16 157.091 57.7467 157.358 57.48C157.624 57.1867 157.891 57.04 158.158 57.04C158.691 57.04 159.144 57.2133 159.518 57.56C159.918 57.88 160.211 58.28 160.398 58.76C160.718 59.8 160.998 60.7467 161.238 61.6C161.344 61.9467 161.584 62.7867 161.958 64.12C162.358 65.4267 162.718 66.5333 163.038 67.44C163.358 68.3467 163.624 68.9867 163.838 69.36L165.358 64.48ZM202.209 55.48C201.809 55.2133 201.422 54.9067 201.049 54.56C200.089 53.8133 199.275 53.2667 198.609 52.92C197.942 52.5467 197.195 52.36 196.369 52.36C195.195 52.36 194.022 52.5067 192.849 52.8C191.702 53.0933 190.755 53.5067 190.009 54.04C188.889 54.8667 188.129 55.96 187.729 57.32C187.329 58.6533 187.129 60.2933 187.129 62.24C187.129 64.2933 187.769 66.12 189.049 67.72C189.822 68.6 190.755 69.28 191.849 69.76C192.969 70.24 194.089 70.48 195.209 70.48C197.795 70.48 199.715 69.76 200.969 68.32C201.875 67.1733 202.329 65.7733 202.329 64.12C202.329 63.8267 202.115 63.6267 201.689 63.52C201.262 63.4133 200.649 63.36 199.849 63.36C199.449 63.36 198.822 63.3067 197.969 63.2C197.729 63.1733 197.462 63.1467 197.169 63.12C196.902 63.0933 196.622 63.08 196.329 63.08C195.555 63.08 194.942 62.9333 194.489 62.64C194.035 62.3467 193.809 61.9733 193.809 61.52C193.809 60.88 194.022 60.4133 194.449 60.12C194.875 59.8 195.449 59.64 196.169 59.64C196.995 59.64 198.262 59.6933 199.969 59.8C201.569 59.9067 202.702 59.96 203.369 59.96C204.302 59.96 205.049 60.2533 205.609 60.84C206.195 61.4267 206.489 62.28 206.489 63.4C206.489 64.44 206.262 65.6533 205.809 67.04C205.355 68.4267 204.715 69.6667 203.889 70.76C203.089 71.8533 201.902 72.6933 200.329 73.28C198.782 73.8667 197.075 74.16 195.209 74.16C193.689 74.16 192.182 73.8933 190.689 73.36C189.195 72.8 187.942 72.0533 186.929 71.12C185.702 69.9733 184.729 68.6133 184.009 67.04C183.315 65.44 182.969 63.8533 182.969 62.28C182.969 59.8533 183.395 57.5867 184.249 55.48C185.129 53.3467 186.462 51.6933 188.249 50.52C189.049 49.9867 190.275 49.5467 191.929 49.2C193.582 48.8533 195.035 48.68 196.289 48.68C198.049 48.68 199.649 49.0667 201.089 49.84C202.529 50.6133 203.649 51.5733 204.449 52.72C204.769 53.2 204.929 53.6267 204.929 54C204.929 54.4267 204.742 54.8267 204.369 55.2C203.995 55.5733 203.622 55.76 203.249 55.76C203.089 55.76 202.902 55.7333 202.689 55.68C202.475 55.6267 202.315 55.56 202.209 55.48ZM228.866 72.08C228.866 72.6667 228.546 73.16 227.906 73.56C227.266 73.96 226.679 74.16 226.146 74.16C225.159 74.16 224.359 74.04 223.746 73.8C223.159 73.5333 222.599 73.0533 222.066 72.36C221.399 72.9733 220.466 73.44 219.266 73.76C218.066 74.0533 216.959 74.2 215.946 74.2C214.293 74.2 212.919 73.76 211.826 72.88C210.759 71.9733 210.226 70.6533 210.226 68.92C210.226 68.1733 210.453 67.4267 210.906 66.68C211.359 65.9067 211.919 65.2933 212.586 64.84C213.306 64.36 214.119 64.04 215.026 63.88C215.933 63.6933 216.986 63.6 218.186 63.6C218.746 63.6 219.413 63.7067 220.186 63.92C220.959 64.1333 221.573 64.36 222.026 64.6V63.96C222.026 62.52 221.666 61.5333 220.946 61C220.253 60.44 219.133 60.16 217.586 60.16C217.106 60.16 216.666 60.24 216.266 60.4C215.893 60.5333 215.453 60.7333 214.946 61C214.466 61.2667 214.013 61.4 213.586 61.4C213.213 61.4 212.853 61.2533 212.506 60.96C212.159 60.64 211.986 60.3067 211.986 59.96C211.986 58.84 212.679 58.0267 214.066 57.52C215.479 56.9867 216.919 56.72 218.386 56.72C219.133 56.72 219.986 56.88 220.946 57.2C221.906 57.4933 222.719 57.9067 223.386 58.44C224.186 59.1067 224.799 59.9067 225.226 60.84C225.679 61.7733 225.906 62.7867 225.906 63.88C225.906 64.2267 225.879 64.7467 225.826 65.44C225.773 66.1867 225.746 66.8267 225.746 67.36L225.706 68.44C225.653 69.0267 225.626 69.4933 225.626 69.84C225.626 70.16 225.733 70.44 225.946 70.68C226.186 70.8933 226.466 71 226.786 71L227.906 70.96C228.199 70.96 228.426 71.08 228.586 71.32C228.773 71.5333 228.866 71.7867 228.866 72.08ZM215.946 71.04C217.093 71.04 218.053 70.92 218.826 70.68C219.599 70.44 220.533 70 221.626 69.36C221.733 68.9067 221.799 68.3067 221.826 67.56C220.359 66.8667 219.146 66.52 218.186 66.52C217.279 66.52 216.546 66.56 215.986 66.64C215.426 66.6933 214.919 66.92 214.466 67.32C214.013 67.72 213.786 68.36 213.786 69.24C213.786 69.7467 214.026 70.1733 214.506 70.52C215.013 70.8667 215.493 71.04 215.946 71.04ZM235.928 67.8C235.928 68.8133 236.075 69.6 236.368 70.16C236.688 70.6933 237.088 70.96 237.568 70.96C237.835 70.96 238.088 70.9467 238.328 70.92C238.568 70.8667 238.808 70.84 239.048 70.84C239.315 70.84 239.541 70.9733 239.728 71.24C239.941 71.5067 240.048 71.8 240.048 72.12C240.048 72.76 239.741 73.2667 239.128 73.64C238.541 73.9867 237.741 74.16 236.728 74.16C236.008 74.16 235.275 73.9467 234.528 73.52C233.808 73.0667 233.208 72.3733 232.728 71.44C232.248 70.48 232.008 69.2933 232.008 67.88C232.008 64.84 232.061 62.2667 232.168 60.16C232.301 57.6533 232.368 54.4933 232.368 50.68C232.368 49.48 232.435 48.64 232.568 48.16C232.728 47.7867 232.981 47.5067 233.328 47.32C233.701 47.1067 234.088 47 234.488 47C234.888 47 235.235 47.0667 235.528 47.2C235.848 47.3333 236.061 47.5467 236.168 47.84C236.275 48.16 236.341 48.48 236.368 48.8C236.421 49.0933 236.448 49.52 236.448 50.08C236.448 51.1733 236.408 52.2267 236.328 53.24C236.275 54.4667 236.248 55.36 236.248 55.92C236.035 60.6133 235.928 64.5733 235.928 67.8ZM247.256 67.8C247.256 68.8133 247.403 69.6 247.696 70.16C248.016 70.6933 248.416 70.96 248.896 70.96C249.163 70.96 249.416 70.9467 249.656 70.92C249.896 70.8667 250.136 70.84 250.376 70.84C250.643 70.84 250.87 70.9733 251.056 71.24C251.27 71.5067 251.376 71.8 251.376 72.12C251.376 72.76 251.07 73.2667 250.456 73.64C249.87 73.9867 249.07 74.16 248.056 74.16C247.336 74.16 246.603 73.9467 245.856 73.52C245.136 73.0667 244.536 72.3733 244.056 71.44C243.576 70.48 243.336 69.2933 243.336 67.88C243.336 64.84 243.39 62.2667 243.496 60.16C243.63 57.6533 243.696 54.4933 243.696 50.68C243.696 49.48 243.763 48.64 243.896 48.16C244.056 47.7867 244.31 47.5067 244.656 47.32C245.03 47.1067 245.416 47 245.816 47C246.216 47 246.563 47.0667 246.856 47.2C247.176 47.3333 247.39 47.5467 247.496 47.84C247.603 48.16 247.67 48.48 247.696 48.8C247.75 49.0933 247.776 49.52 247.776 50.08C247.776 51.1733 247.736 52.2267 247.656 53.24C247.603 54.4667 247.576 55.36 247.576 55.92C247.363 60.6133 247.256 64.5733 247.256 67.8ZM253.784 65.52C253.784 64.5067 253.971 63.4933 254.344 62.48C254.718 61.44 255.211 60.4933 255.824 59.64C256.438 58.7867 257.411 58.0933 258.744 57.56C260.078 57 261.264 56.72 262.304 56.72C263.371 56.72 264.451 56.8667 265.544 57.16C266.664 57.4533 267.438 57.9067 267.864 58.52C268.851 59.9067 269.344 61.2667 269.344 62.6C269.344 63.32 269.184 63.9333 268.864 64.44C268.571 64.9467 268.144 65.4933 267.584 66.08C267.131 66.56 266.411 66.88 265.424 67.04C264.464 67.2 263.504 67.28 262.544 67.28C261.931 67.28 261.184 67.2267 260.304 67.12C259.424 66.9867 258.571 66.8267 257.744 66.64C257.798 67.1733 257.931 67.6933 258.144 68.2C258.358 68.7067 258.611 69.0933 258.904 69.36C259.438 69.8667 259.984 70.1867 260.544 70.32C261.131 70.4533 261.878 70.52 262.784 70.52C263.744 70.52 264.638 70.36 265.464 70.04C266.131 69.8 266.678 69.68 267.104 69.68C267.611 69.68 267.998 69.84 268.264 70.16C268.531 70.4533 268.664 70.84 268.664 71.32C268.664 71.9867 268.278 72.5333 267.504 72.96C266.731 73.3867 265.838 73.7067 264.824 73.92C263.838 74.1067 263.038 74.2 262.424 74.2C261.171 74.2 259.958 73.9733 258.784 73.52C257.611 73.0667 256.638 72.4267 255.864 71.6C255.224 70.8533 254.718 69.96 254.344 68.92C253.971 67.8533 253.784 66.72 253.784 65.52ZM262.504 60.12C261.918 60.12 261.331 60.24 260.744 60.48C260.158 60.6933 259.678 61 259.304 61.4C258.824 61.9067 258.491 62.32 258.304 62.64C258.144 62.9333 258.038 63.3467 257.984 63.88C258.651 64.0933 260.038 64.2 262.144 64.2C263.291 64.2 264.171 64.0267 264.784 63.68C265.424 63.3333 265.744 62.88 265.744 62.32C265.744 61.76 265.398 61.2533 264.704 60.8C264.011 60.3467 263.278 60.12 262.504 60.12ZM279.087 72.4C279.087 72.8533 278.914 73.2533 278.567 73.6C278.22 73.9467 277.794 74.12 277.287 74.12C276.487 74.12 275.9 73.9733 275.527 73.68C275.154 73.36 274.967 72.7867 274.967 71.96C274.967 70.9733 274.94 69.68 274.887 68.08C274.834 66.7467 274.807 65.6267 274.807 64.72C274.807 64.2933 274.834 63.7333 274.887 63.04C274.94 62.4 274.967 61.92 274.967 61.6C274.887 61.0933 274.687 60.68 274.367 60.36C274.047 60.0133 273.634 59.84 273.127 59.84C272.887 59.84 272.687 59.7333 272.527 59.52C272.367 59.28 272.287 59.04 272.287 58.8C272.287 58.1867 272.527 57.72 273.007 57.4C273.514 57.08 274.114 56.92 274.807 56.92C276.247 56.92 277.247 57.7733 277.807 59.48C278.5 58.68 279.287 58.04 280.167 57.56C281.074 57.0533 281.94 56.8 282.767 56.8C283.754 56.8 284.647 57.0667 285.447 57.6C286.274 58.1333 286.687 58.8533 286.687 59.76C286.687 60.2667 286.46 60.7867 286.007 61.32C285.58 61.8533 285.14 62.12 284.687 62.12C284.447 62.12 284.234 62.0667 284.047 61.96C283.887 61.8267 283.687 61.64 283.447 61.4C283.18 61.1333 282.954 60.9467 282.767 60.84C282.58 60.7067 282.367 60.64 282.127 60.64C281.7 60.64 281.3 60.7067 280.927 60.84C280.554 60.9733 280.3 61.1333 280.167 61.32C279.74 61.9867 279.42 62.5867 279.207 63.12C279.02 63.6533 278.927 64.2267 278.927 64.84C278.927 65.2933 278.914 65.6533 278.887 65.92L278.847 68.2C278.847 68.5467 278.86 68.9333 278.887 69.36C278.914 69.7867 278.94 70.1067 278.967 70.32C279.047 71.04 279.087 71.7333 279.087 72.4ZM293.425 82.16C291.959 82.16 290.892 81.8933 290.225 81.36C289.585 80.8533 289.265 80.2933 289.265 79.68C289.265 78.7467 289.705 78.28 290.585 78.28C290.852 78.28 291.199 78.36 291.625 78.52C292.052 78.7067 292.452 78.8 292.825 78.8C293.412 78.8 293.892 78.4133 294.265 77.64C294.639 76.8667 295.012 75.6133 295.385 73.88C294.559 72.92 293.545 71.4 292.345 69.32C291.172 67.24 290.159 65.2 289.305 63.2C288.452 61.1733 288.025 59.7333 288.025 58.88C288.025 58.2133 288.252 57.72 288.705 57.4C289.185 57.08 289.732 56.92 290.345 56.92C290.825 56.92 291.199 57.0133 291.465 57.2C291.732 57.36 291.919 57.6667 292.025 58.12C292.665 60.3867 293.345 62.3733 294.065 64.08C294.812 65.7867 295.759 67.64 296.905 69.64C297.359 68.6 297.959 66.8267 298.705 64.32C299.532 61.52 300.225 59.5333 300.785 58.36C301.025 57.88 301.319 57.4933 301.665 57.2C302.039 56.9067 302.452 56.76 302.905 56.76C303.359 56.76 303.839 56.9333 304.345 57.28C304.879 57.6 305.145 57.9867 305.145 58.44C305.145 58.7067 305.052 59.0267 304.865 59.4C303.825 61.8 302.905 64.0667 302.105 66.2C301.332 68.3067 300.585 70.6267 299.865 73.16C299.439 74.5733 298.985 75.92 298.505 77.2C298.052 78.48 297.732 79.2667 297.545 79.56C297.012 80.3067 296.412 80.92 295.745 81.4C295.079 81.9067 294.305 82.16 293.425 82.16Z" fill="white"/>
<defs>
<filter id="filter0_i_17_14" x="0" y="0" width="387" height="125" filterUnits="userSpaceOnUse" color-interpolation-filters="sRGB">
<feFlood flood-opacity="0" result="BackgroundImageFix"/>
<feBlend mode="normal" in="SourceGraphic" in2="BackgroundImageFix" result="shape"/>
<feColorMatrix in="SourceAlpha" type="matrix" values="0 0 0 0 0 0 0 0 0 0 0 0 0 0 0 0 0 0 127 0" result="hardAlpha"/>
<feOffset dy="4"/>
<feGaussianBlur stdDeviation="25.2"/>
<feComposite in2="hardAlpha" operator="arithmetic" k2="-1" k3="1"/>
<feColorMatrix type="matrix" values="0 0 0 0 0.168627 0 0 0 0 0.129412 0 0 0 0 0.12549 0 0 0 1 0"/>
<feBlend mode="normal" in2="shape" result="effect1_innerShadow_17_14"/>
</filter>
</defs>
</svg>
