<svg width="114" height="114" viewBox="0 0 114 114" fill="none" xmlns="http://www.w3.org/2000/svg">
<g opacity="0.68">
<rect x="0.5" y="0.5" width="113" height="113" fill="#735337"/>
<rect x="0.5" y="0.5" width="113" height="113" stroke="#986767"/>
<path d="M90.25 80.75H23.75C18.5107 80.75 14.25 85.0107 14.25 90.25C14.25 95.4893 18.5107 99.75 23.75 99.75H90.25C95.4893 99.75 99.75 95.4893 99.75 90.25C99.75 85.0107 95.4893 80.75 90.25 80.75ZM90.25 47.5H23.75C18.5107 47.5 14.25 51.7607 14.25 57C14.25 62.2393 18.5107 66.5 23.75 66.5H90.25C95.4893 66.5 99.75 62.2393 99.75 57C99.75 51.7607 95.4893 47.5 90.25 47.5ZM90.25 14.25H23.75C18.5107 14.25 14.25 18.5107 14.25 23.75C14.25 28.9893 18.5107 33.25 23.75 33.25H90.25C95.4893 33.25 99.75 28.9893 99.75 23.75C99.75 18.5107 95.4893 14.25 90.25 14.25Z" fill="black"/>
</g>
</svg>
